<?xml version="1.0" standalone="no"?>
<!DOCTYPE svg PUBLIC "-//W3C//DTD SVG 20010904//EN"
 "http://www.w3.org/TR/2001/REC-SVG-20010904/DTD/svg10.dtd">
<svg version="1.0" xmlns="http://www.w3.org/2000/svg"
 width="500.000000pt" height="500.000000pt" viewBox="0 0 500.000000 500.000000"
 preserveAspectRatio="xMidYMid meet">
<metadata>
Created by potrace 1.14, written by Peter Selinger 2001-2017
</metadata>
<g transform="translate(0.000000,500.000000) scale(0.100000,-0.100000)"
fill="#000000" stroke="none">
<path d="M0 2500 l0 -2500 2500 0 2500 0 0 2500 0 2500 -2500 0 -2500 0 0
-2500z m2279 2154 c13 -107 61 -576 61 -586 0 -5 -12 -8 -26 -8 -46 0 -227
-40 -314 -70 -47 -16 -88 -26 -91 -22 -15 16 -158 375 -153 383 12 21 23 2 78
-136 32 -80 62 -145 67 -145 15 0 12 10 -66 216 -41 109 -75 204 -75 211 0 7
6 13 14 13 9 0 45 -88 102 -250 49 -137 94 -248 99 -246 13 5 18 -13 -73 253
-66 192 -77 233 -64 238 8 3 16 4 17 3 1 -2 35 -105 75 -230 41 -126 77 -228
82 -228 14 0 9 21 -36 165 -29 96 -40 142 -32 147 14 9 20 1 34 -47 35 -129
45 -155 56 -155 10 0 1 43 -29 153 -30 106 -39 154 -31 159 6 4 14 4 17 0 3
-4 30 -100 59 -214 38 -151 57 -208 68 -208 9 0 12 6 7 18 -14 36 -125 505
-121 510 18 17 35 -18 55 -117 22 -102 33 -132 48 -118 3 3 -7 63 -22 134 -15
70 -27 132 -28 137 -1 6 5 11 14 13 14 3 23 -31 60 -222 24 -124 47 -231 51
-238 22 -36 15 28 -26 259 -26 141 -45 259 -42 261 22 22 34 -23 75 -273 51
-322 51 -318 63 -306 7 7 5 43 -5 109 -38 234 -48 315 -43 330 13 32 25 -4 41
-122 21 -154 23 -165 36 -165 8 0 10 15 6 43 -46 387 -50 429 -36 437 7 5 15
8 16 6 1 -1 7 -42 12 -92z m661 55 c0 -5 -4 -29 -10 -52 -5 -23 -35 -170 -66
-327 -31 -157 -57 -286 -58 -287 -1 -1 -44 5 -96 13 -52 7 -152 14 -221 14
l-126 0 -11 123 c-25 268 -26 297 -10 297 12 0 17 -21 22 -102 10 -155 17
-208 29 -208 7 0 8 37 3 113 -20 348 -20 347 -4 347 17 0 21 -49 34 -377 5
-127 10 -163 20 -163 10 0 13 14 9 58 -2 31 -7 146 -10 255 -5 193 -5 197 15
197 20 0 20 -6 20 -241 0 -167 3 -240 11 -237 7 2 11 58 12 157 2 113 5 155
15 158 9 4 12 -23 12 -111 0 -96 3 -116 15 -116 13 0 15 24 15 160 0 155 1
160 20 160 18 0 20 -5 16 -32 -12 -78 -18 -418 -7 -418 6 0 11 6 11 13 0 6 7
120 15 252 8 132 15 248 15 258 0 9 7 17 16 17 15 0 16 -13 10 -125 -5 -79 -4
-125 2 -125 14 0 19 31 27 145 4 55 9 108 11 118 5 17 34 24 34 8 0 -15 -39
-381 -45 -428 -5 -33 -3 -43 7 -43 11 0 21 58 41 238 16 130 30 249 33 265 6
30 34 38 34 10 0 -18 -66 -506 -75 -555 -3 -20 0 -28 10 -28 8 0 15 4 15 9 0
5 13 100 30 212 16 112 30 207 30 212 0 13 30 8 30 -5 0 -7 -9 -73 -21 -146
-20 -119 -20 -166 -1 -135 4 6 25 113 47 237 34 194 42 226 57 226 10 0 18 -5
18 -11z m-1185 -449 l133 -310 -107 -55 c-58 -30 -144 -82 -190 -116 -46 -33
-87 -57 -91 -52 -4 4 -65 77 -134 161 -112 136 -134 172 -108 172 6 0 139
-161 188 -228 6 -8 16 -12 22 -8 7 4 -41 74 -129 186 -125 160 -148 200 -120
200 5 0 79 -94 166 -210 140 -187 175 -228 175 -202 0 4 -35 54 -77 112 -42
58 -107 147 -145 198 -61 85 -73 112 -48 112 7 0 148 -194 249 -343 21 -31 37
-45 43 -39 6 6 -24 57 -81 138 -59 86 -86 132 -80 139 13 12 34 -12 92 -106
23 -38 48 -69 55 -69 6 0 12 3 12 6 0 3 -39 66 -86 141 -66 103 -84 137 -73
143 9 6 43 -39 126 -173 62 -100 114 -186 116 -191 2 -5 8 -6 15 -3 7 5 -35
84 -124 231 -73 123 -134 229 -134 234 0 37 27 9 80 -83 57 -96 80 -124 80
-94 0 6 -29 63 -65 127 -47 83 -62 119 -55 126 15 15 20 8 141 -218 57 -108
110 -196 117 -196 6 0 12 2 12 4 0 4 -206 401 -232 445 -15 27 -17 36 -6 42 7
5 15 9 18 8 3 0 64 -119 135 -264 72 -145 136 -264 143 -265 6 0 12 2 12 4 0
2 -43 92 -95 200 -52 109 -95 202 -95 207 0 5 6 9 14 9 7 0 29 -35 49 -77 19
-43 48 -104 62 -136 17 -36 31 -55 37 -49 8 8 -34 111 -148 360 -31 68 -35 85
-24 92 8 5 16 7 19 5 2 -2 63 -144 136 -315z m1280 310 c3 -5 -5 -52 -19 -102
-41 -154 -106 -405 -106 -412 0 -11 21 -6 25 7 2 6 32 114 66 240 42 153 66
227 76 227 7 0 13 -6 13 -14 0 -10 -89 -321 -126 -438 -3 -11 0 -18 8 -18 8 0
28 49 51 128 52 169 55 178 68 165 8 -8 2 -38 -20 -105 -33 -99 -36 -118 -22
-118 5 0 33 68 61 150 33 94 58 150 66 150 19 0 18 -6 -22 -116 -106 -292
-113 -314 -100 -314 8 0 49 97 105 249 71 192 96 248 107 244 17 -6 15 -14
-32 -132 -36 -89 -41 -115 -23 -109 6 2 33 60 61 128 28 69 52 127 54 128 1 2
9 0 17 -5 12 -6 -3 -48 -80 -227 -61 -139 -91 -222 -85 -228 6 -6 49 80 118
236 60 135 114 246 121 246 22 0 21 -14 -3 -65 -12 -27 -66 -141 -118 -253
-105 -225 -112 -242 -97 -242 6 0 54 89 106 197 52 108 97 199 100 202 3 2 10
0 16 -6 8 -8 -8 -49 -56 -143 -37 -72 -64 -134 -61 -137 11 -12 26 12 130 213
62 119 110 200 120 202 9 2 16 -1 16 -7 0 -7 -313 -593 -325 -609 -1 -1 -48
20 -105 47 -57 27 -148 62 -204 77 -56 15 -102 28 -103 29 -2 1 16 94 40 206
36 167 47 205 61 207 13 3 17 -1 12 -15 -17 -59 -65 -287 -61 -292 13 -12 25
25 64 189 23 96 47 192 52 213 10 37 22 46 34 27z m585 -252 c0 -10 -116 -203
-233 -386 -25 -39 -36 -67 -31 -72 6 -6 32 26 69 86 33 52 71 113 85 134 14
21 48 75 75 119 28 44 54 81 58 81 29 1 3 -51 -112 -224 -72 -108 -131 -198
-131 -201 0 -3 6 -5 13 -5 6 0 29 26 49 58 92 145 135 200 148 192 10 -6 -2
-29 -48 -94 -60 -83 -74 -112 -51 -104 5 2 50 57 98 123 81 111 101 131 108
108 2 -5 -55 -86 -127 -181 -71 -96 -130 -175 -130 -178 0 -26 51 30 185 206
88 115 164 208 169 207 23 -7 12 -28 -60 -116 -56 -69 -73 -96 -64 -105 8 -8
13 -8 18 1 4 6 45 57 91 112 60 73 87 99 95 91 13 -13 21 -2 -151 -207 -79
-92 -143 -171 -143 -175 0 -24 34 11 187 186 92 107 173 195 180 195 22 2 23
-16 2 -40 -11 -13 -39 -44 -62 -69 -202 -218 -318 -353 -311 -360 5 -5 72 60
159 155 138 150 170 178 170 147 0 -6 -44 -58 -98 -116 -157 -169 -94 -131 89
54 138 140 170 168 182 158 14 -12 -17 -44 -425 -441 l-62 -60 -76 71 c-41 39
-118 99 -170 134 -52 35 -94 67 -95 71 0 20 203 367 216 367 8 0 14 -2 14 -5
0 -3 -34 -65 -75 -137 -41 -72 -75 -135 -75 -140 0 -30 32 15 132 182 99 168
138 218 138 178z m-2349 -356 l217 -257 -97 -100 c-54 -55 -119 -129 -145
-165 -26 -36 -49 -66 -51 -68 -3 -3 -328 210 -347 227 -4 3 -3 13 2 21 8 12
11 12 27 -2 56 -48 242 -167 248 -157 4 5 5 12 4 13 -2 2 -76 53 -164 115
-208 145 -206 143 -196 159 6 10 64 -28 221 -142 117 -86 217 -156 222 -156
26 0 -12 32 -192 166 -180 135 -217 169 -182 169 11 0 216 -154 331 -247 48
-40 61 -46 60 -25 0 6 -54 54 -120 105 -103 81 -131 112 -100 112 4 0 43 -29
86 -65 43 -36 82 -65 86 -65 24 0 -1 28 -111 120 -107 90 -132 120 -99 120 5
0 20 -9 32 -21 76 -72 291 -255 303 -257 26 -6 12 13 -49 67 -34 30 -82 73
-107 95 -25 23 -84 76 -132 120 -84 75 -105 106 -74 106 8 0 16 -3 18 -7 2 -5
38 -41 81 -82 51 -49 81 -71 87 -65 7 7 -24 44 -90 109 -70 68 -97 102 -90
109 7 7 35 -14 93 -71 118 -117 257 -247 268 -251 26 -10 -8 30 -176 203 -132
136 -181 193 -174 202 8 8 41 -20 122 -105 238 -249 306 -316 313 -310 7 8
-23 43 -193 225 -79 85 -103 117 -95 125 9 9 27 -6 74 -58 125 -138 145 -157
151 -147 3 5 -63 90 -148 187 -85 98 -155 181 -155 185 0 9 11 21 19 20 3 0
103 -116 222 -257z m1534 -15 c141 -32 251 -73 373 -138 83 -44 209 -129 254
-172 7 -6 32 -29 56 -49 23 -21 38 -38 34 -38 -5 0 -45 32 -89 70 -44 39 -85
70 -91 70 -5 0 -15 7 -22 15 -19 23 -101 66 -113 58 -6 -3 -7 -1 -3 5 5 8 0
12 -12 12 -11 0 -25 7 -32 15 -7 9 -21 13 -31 10 -14 -5 -17 -2 -13 9 4 11 0
13 -17 9 -15 -4 -20 -3 -15 5 4 7 6 12 4 13 -2 0 -23 3 -48 5 -25 3 -55 12
-67 20 -12 8 -38 14 -58 14 -34 0 -35 -1 -35 -40 l0 -40 -80 0 -80 0 0 -36 c0
-38 -20 -63 -50 -64 -13 0 -13 1 0 10 12 8 10 10 -9 10 -22 0 -23 -3 -19 -50
l5 -50 -43 0 c-24 0 -58 -6 -76 -14 -18 -8 -72 -27 -120 -42 -48 -15 -85 -30
-83 -34 2 -4 -6 -5 -18 -3 -24 5 -76 -32 -63 -44 4 -4 10 -3 14 3 4 6 21 14
37 17 17 3 55 12 85 20 269 73 421 107 475 107 90 0 173 -32 232 -88 62 -60
83 -106 83 -183 0 -66 -14 -101 -57 -140 -57 -54 -86 -61 -288 -75 -369 -25
-545 -62 -605 -126 -29 -31 -25 -56 16 -95 40 -37 114 -76 414 -218 359 -170
355 -168 334 -176 -10 -4 -89 -24 -174 -44 -188 -45 -373 -97 -460 -131 -180
-68 -315 -180 -327 -273 -4 -32 -1 -42 26 -68 39 -39 139 -78 267 -103 78 -16
170 -22 439 -30 186 -6 366 -15 400 -20 136 -22 215 -61 215 -108 0 -24 -64
-84 -119 -112 -168 -84 -501 -164 -851 -205 -172 -20 -431 -30 -410 -16 9 5
88 26 175 46 223 50 335 79 520 132 170 48 219 68 210 83 -8 13 -163 13 -340
0 -228 -17 -366 1 -600 77 -359 117 -509 265 -450 444 14 42 33 69 84 119 163
160 484 271 788 274 62 1 113 2 113 2 0 1 -37 14 -82 29 -99 33 -316 139 -401
197 -76 52 -153 123 -207 193 -33 43 -40 59 -40 98 0 96 94 151 283 168 56 4
188 16 292 24 319 28 477 57 500 95 10 15 -18 49 -50 61 -16 6 -139 13 -274
16 -200 5 -243 4 -239 -7 2 -8 13 -18 24 -24 10 -6 23 -17 27 -23 4 -7 13 -13
20 -13 7 0 18 -9 25 -20 11 -18 10 -20 -15 -20 -26 0 -26 -1 -7 -15 19 -14 18
-14 -3 -15 -13 0 -23 5 -23 10 0 6 -33 10 -80 10 -72 0 -80 -2 -80 -19 0 -17
-10 -20 -87 -24 -77 -5 -185 -22 -158 -26 12 -2 -16 -21 -30 -21 -5 0 -3 5 5
10 13 8 12 10 -2 10 -10 0 -18 -4 -18 -10 0 -5 -7 -10 -16 -10 -8 0 -13 -4 -9
-9 3 -5 -9 -17 -26 -25 -26 -13 -35 -14 -48 -3 -14 10 -14 10 -3 -5 11 -13 11
-21 0 -40 -7 -12 -21 -29 -31 -36 -22 -17 -17 -90 7 -108 19 -14 21 -24 3 -24
-7 0 -25 -6 -40 -12 -22 -11 -27 -20 -27 -50 l0 -38 -80 0 -80 0 0 -40 0 -40
-40 0 -40 0 0 -40 0 -40 -40 0 -40 0 0 -40 0 -40 -80 0 -80 0 0 -40 0 -40 -40
0 c-22 0 -40 4 -40 9 0 6 -9 9 -19 8 -22 -1 -18 -17 5 -17 10 0 14 -12 14 -40
0 -32 -4 -40 -18 -40 -16 0 -20 -15 -32 -116 -7 -66 -9 -119 -4 -123 5 -3 10
-35 10 -71 1 -36 9 -87 19 -115 9 -27 18 -57 19 -65 1 -8 6 -24 13 -35 15 -27
28 -96 13 -73 -20 32 -68 194 -90 306 -20 100 -22 135 -17 305 3 145 9 214 25
282 99 431 375 796 755 996 148 77 285 125 432 148 114 18 133 19 295 16 120
-3 180 -9 265 -28z m1300 -34 c0 -5 -89 -88 -197 -183 -109 -96 -198 -178
-198 -182 0 -23 2 -21 287 224 56 48 107 88 112 88 35 0 0 -36 -164 -171 -102
-84 -185 -156 -185 -161 0 -18 23 -4 126 79 60 47 115 91 122 96 8 7 16 7 23
0 6 -6 -19 -33 -76 -77 -77 -61 -99 -86 -77 -86 4 0 61 41 127 90 66 49 123
90 127 90 33 0 -7 -37 -157 -147 -96 -70 -174 -131 -175 -135 -1 -20 35 2 232
142 157 112 214 148 222 139 12 -12 9 -15 -118 -103 -57 -40 -75 -57 -64 -61
11 -4 57 21 129 70 83 56 114 72 120 63 5 -7 3 -18 -4 -24 -10 -10 -223 -147
-344 -223 -24 -14 -43 -32 -43 -38 0 -17 6 -16 38 6 37 27 420 261 425 261 3
0 7 -6 10 -14 4 -10 -69 -59 -249 -166 -226 -136 -275 -170 -246 -170 5 0 94
49 198 110 121 70 192 106 198 100 14 -14 6 -20 -122 -90 -110 -61 -130 -76
-118 -87 4 -5 137 64 365 189 38 22 56 27 64 19 7 -7 7 -14 1 -20 -5 -5 -128
-71 -274 -146 -146 -76 -281 -146 -300 -157 -28 -16 -36 -18 -42 -7 -54 94
-135 214 -186 275 -35 41 -62 77 -60 78 1 1 72 68 155 149 84 81 157 147 163
147 28 0 0 -36 -94 -121 -99 -90 -122 -116 -112 -127 3 -2 81 63 173 146 155
139 188 163 188 135z m-1095 -83 c11 -7 7 -10 -17 -10 -18 0 -33 5 -33 10 0
13 30 13 50 0z m-2218 -230 c64 -41 176 -113 248 -159 72 -46 133 -88 136 -93
3 -5 -1 -17 -9 -26 -24 -28 -98 -180 -136 -282 l-36 -96 -202 60 c-134 39
-203 64 -203 73 0 19 9 17 168 -33 132 -42 171 -48 146 -25 -5 5 -102 39 -216
76 -144 46 -208 71 -208 81 0 7 5 14 11 14 9 0 432 -143 494 -166 9 -4 15 -1
15 7 0 9 -87 45 -239 98 -170 60 -237 89 -234 98 3 7 9 13 14 13 5 0 104 -36
220 -80 116 -44 215 -80 220 -80 5 0 9 4 9 9 0 5 -65 35 -145 67 -80 31 -145
60 -145 65 0 20 24 16 110 -21 100 -43 114 -46 108 -28 -2 6 -65 37 -139 69
-79 34 -135 65 -137 74 -2 8 0 15 5 15 5 0 97 -40 205 -89 125 -56 198 -84
201 -77 3 7 -91 55 -235 121 -132 61 -241 112 -243 115 -2 3 0 12 4 19 6 9 35
-1 119 -43 78 -39 112 -52 115 -42 3 8 -38 34 -119 74 -76 38 -124 68 -124 77
0 8 5 15 11 15 6 0 102 -48 212 -106 111 -58 205 -106 210 -107 5 -1 11 3 13
8 2 6 -19 23 -48 37 -77 40 -409 218 -417 225 -3 2 1 9 7 15 13 13 -11 25 309
-154 116 -65 216 -118 222 -118 21 0 10 15 -27 36 -220 127 -339 197 -346 204
-6 6 -3 12 7 16 11 4 58 -19 132 -65 63 -39 120 -71 125 -71 25 0 5 23 -47 56
-32 19 -119 73 -193 119 -74 47 -139 86 -143 87 -5 2 -5 11 -1 21 7 20 -2 25
196 -103z m2096 113 c-15 -2 -42 -2 -60 0 -18 2 -6 4 27 4 33 0 48 -2 33 -4z
m-88 -23 c0 -5 -18 -10 -40 -10 -22 0 -40 5 -40 10 0 6 18 10 40 10 22 0 40
-4 40 -10z m160 -20 c0 -5 -6 -10 -14 -10 -8 0 -18 5 -21 10 -3 6 3 10 14 10
12 0 21 -4 21 -10z m-260 -10 c0 -5 -7 -10 -15 -10 -8 0 -15 5 -15 10 0 6 7
10 15 10 8 0 15 -4 15 -10z m912 -206 c36 -43 64 -81 62 -83 -2 -3 -11 4 -18
15 -17 24 -45 56 -99 113 -22 24 -34 42 -26 39 8 -2 44 -40 81 -84z m-1212
-14 c0 -5 18 -10 40 -10 22 0 40 -4 40 -10 0 -5 -18 -10 -40 -10 -22 0 -40 5
-40 10 0 6 -7 10 -15 10 -8 0 -15 5 -15 10 0 6 7 10 15 10 8 0 15 -4 15 -10z
m273 -17 c-7 -2 -19 -2 -25 0 -7 3 -2 5 12 5 14 0 19 -2 13 -5z m-180 -48 c-7
-21 -13 -19 -13 6 0 11 4 18 10 14 5 -3 7 -12 3 -20z m88 7 c-7 -2 -18 1 -23
6 -8 8 -4 9 13 5 13 -4 18 -8 10 -11z m69 8 c-8 -5 -19 -10 -25 -10 -5 0 -3 5
5 10 8 5 20 10 25 10 6 0 3 -5 -5 -10z m1647 -17 c-3 -5 -67 -38 -141 -74 -75
-35 -136 -70 -136 -76 0 -7 2 -13 4 -13 2 0 94 43 206 95 112 52 207 95 211
95 5 0 9 -7 9 -16 0 -9 -23 -25 -57 -40 -333 -144 -454 -204 -414 -204 5 0
109 43 232 95 123 52 227 95 231 95 4 0 8 -6 8 -14 0 -14 -17 -22 -285 -131
-77 -31 -144 -61 -149 -66 -26 -25 15 -15 144 36 78 30 146 55 151 55 5 0 9
-6 9 -13 0 -7 -46 -30 -105 -51 -70 -26 -103 -42 -96 -49 7 -7 58 7 153 42 79
28 146 51 151 51 4 0 7 -6 7 -14 0 -9 -69 -37 -197 -81 -109 -38 -202 -72
-207 -76 -28 -25 25 -12 249 62 176 57 250 78 258 70 6 -6 9 -13 6 -15 -3 -3
-54 -21 -114 -40 -70 -21 -111 -39 -113 -49 -2 -12 25 -7 129 24 149 44 149
44 149 25 0 -17 -7 -19 -255 -87 -104 -28 -194 -55 -199 -60 -21 -19 5 -19 75
0 234 62 427 111 437 111 19 0 14 -28 -5 -34 -10 -3 -139 -35 -287 -70 -148
-36 -271 -68 -274 -71 -20 -19 33 -12 212 28 223 51 236 53 236 34 0 -9 -44
-23 -137 -42 -132 -27 -164 -38 -151 -50 3 -4 110 14 237 39 127 25 233 46
236 46 3 0 5 -8 5 -19 0 -14 -10 -20 -37 -24 -62 -9 -617 -108 -634 -113 -13
-3 -20 14 -38 88 -12 51 -42 143 -67 205 -24 61 -44 115 -44 120 0 13 384 202
394 193 4 -5 6 -12 3 -17z m-1752 -3 c3 -5 -1 -10 -9 -10 -8 0 -18 5 -21 10
-3 6 1 10 9 10 8 0 18 -4 21 -10z m-120 -18 c-3 -3 -11 0 -18 7 -9 10 -8 11 6
5 10 -3 15 -9 12 -12z m1280 -18 c9 -15 12 -23 6 -20 -11 7 -35 46 -28 46 3 0
12 -12 22 -26z m85 -144 c6 -11 8 -20 6 -20 -3 0 -10 9 -16 20 -6 11 -8 20 -6
20 3 0 10 -9 16 -20z m-3120 -178 c279 -78 315 -90 314 -107 -1 -11 -9 -54
-18 -94 -9 -41 -21 -131 -27 -200 -5 -69 -11 -126 -12 -127 -1 -2 -95 -4 -210
-6 -194 -3 -207 -2 -207 15 0 16 12 18 157 16 106 0 159 3 161 10 3 8 -59 11
-205 13 -114 0 -212 2 -218 3 -5 2 -16 3 -22 4 -7 0 -13 8 -13 16 0 14 22 15
183 10 100 -3 221 -8 270 -11 71 -4 87 -2 87 10 0 11 -36 15 -197 20 -258 9
-313 14 -313 32 0 17 14 17 275 0 110 -8 203 -12 208 -9 21 13 -13 21 -110 27
-166 11 -203 17 -203 33 0 12 10 14 48 9 134 -16 182 -18 182 -7 0 14 -22 18
-160 31 -145 13 -160 17 -160 36 0 12 7 14 28 10 15 -2 111 -15 215 -27 166
-20 212 -21 195 -4 -3 3 -106 19 -229 35 -290 38 -289 38 -289 55 0 18 -4 18
126 -1 73 -11 110 -12 117 -5 12 12 2 14 -133 36 -132 21 -140 24 -140 40 0 8
3 15 7 15 4 0 110 -19 236 -41 202 -37 253 -42 235 -24 -4 5 -496 105 -513
105 -3 0 -5 7 -5 15 0 8 8 15 18 15 19 0 517 -104 552 -115 13 -4 20 -2 20 7
0 9 -26 20 -72 31 -40 9 -137 31 -215 48 -115 26 -143 36 -143 49 0 15 16 13
145 -18 126 -32 173 -37 152 -16 -4 4 -451 124 -464 124 -1 0 0 7 3 15 4 8 11
15 18 15 6 0 153 -40 326 -88z m1111 -6 c0 -3 9 -16 22 -30 48 -52 50 -56 25
-53 -13 1 -26 7 -30 12 -5 6 -8 6 -8 -2 0 -13 -25 -12 -37 2 -4 4 -2 5 6 0 10
-6 12 -2 7 16 -6 21 -6 22 5 5 9 -15 13 -16 20 -5 6 10 9 11 9 2 0 -7 4 -13
10 -13 5 0 7 7 4 15 -4 8 -12 15 -20 15 -8 0 -14 3 -15 8 0 4 -2 15 -4 25 -2
11 -1 17 2 14 2 -3 4 -8 4 -11z m105 -118 c19 -23 19 -23 -1 -7 -11 9 -27 19
-35 22 -13 5 -13 6 1 6 9 1 24 -9 35 -21z m-10 -25 c-7 -7 -26 7 -26 19 0 6 6
6 15 -2 9 -7 13 -15 11 -17z m-11 -21 c-3 -3 -11 0 -18 7 -9 10 -8 11 6 5 10
-3 15 -9 12 -12z m2610 -23 c4 -6 5 -12 3 -14 -1 -2 -68 -13 -148 -25 -165
-24 -177 -27 -164 -40 5 -5 96 3 224 21 252 34 230 33 230 15 0 -20 -3 -20
-282 -52 -184 -21 -248 -32 -248 -42 0 -9 9 -11 33 -7 49 8 414 45 448 45 19
0 29 -5 29 -15 0 -8 -8 -15 -17 -15 -10 0 -115 -9 -233 -20 -118 -11 -218 -20
-222 -20 -5 0 -8 -5 -8 -11 0 -12 114 -8 263 8 46 4 57 3 57 -9 0 -15 -79 -28
-177 -28 -31 0 -43 -4 -43 -14 0 -15 33 -15 253 -1 61 3 67 2 67 -16 0 -18 -8
-19 -143 -19 -175 0 -297 -9 -297 -23 0 -7 91 -8 265 -5 256 6 265 5 265 -13
0 -18 -9 -19 -120 -19 -73 0 -120 -4 -120 -10 0 -6 35 -11 83 -11 45 -1 96 -3
112 -4 17 -2 42 -3 58 -4 17 -1 27 -7 27 -17 0 -13 -27 -14 -240 -8 -162 5
-240 4 -240 -3 0 -12 96 -20 353 -29 167 -6 177 -8 177 -27 0 -18 -5 -19 -72
-13 -40 3 -154 10 -253 16 -99 6 -201 13 -227 15 -37 4 -48 2 -48 -8 0 -11 39
-17 178 -26 243 -16 272 -20 272 -39 0 -12 -10 -13 -57 -8 -152 16 -243 19
-243 7 0 -6 2 -11 4 -11 18 0 470 -50 472 -53 2 -1 -1 -9 -6 -16 -7 -12 -26
-12 -117 -2 -167 19 -504 60 -542 67 l-34 5 6 82 c3 45 1 142 -4 216 -6 73 -8
135 -5 138 4 5 377 71 408 72 9 1 20 -4 23 -10z m-3537 -419 c3 -80 19 -183
44 -287 12 -51 20 -94 17 -96 -5 -5 -383 -127 -392 -127 -15 0 -6 29 11 34
136 39 282 89 282 97 0 14 -8 13 -223 -51 -112 -33 -209 -60 -215 -60 -19 0
-14 28 6 34 9 3 121 33 247 67 127 34 234 66 239 70 26 23 -21 15 -233 -41
-127 -33 -238 -60 -246 -60 -8 0 -15 6 -15 14 0 10 53 26 178 56 252 60 294
72 284 82 -6 6 -71 -5 -158 -26 -82 -19 -150 -33 -153 -31 -16 17 19 33 103
49 88 17 117 29 103 42 -4 5 -206 -32 -295 -53 -19 -5 -23 -2 -20 13 2 15 36
23 217 56 118 21 216 40 219 43 19 19 -37 14 -256 -23 -277 -47 -282 -47 -282
-28 0 15 15 18 153 37 60 8 87 16 87 26 0 16 3 16 -153 -6 -108 -15 -130 -15
-134 -4 -3 8 -4 15 -2 17 3 3 256 35 427 53 34 4 52 10 52 19 0 10 -11 12 -42
8 -227 -29 -484 -50 -490 -40 -4 6 -4 14 0 18 4 3 137 18 296 32 159 14 291
28 294 31 15 15 -22 17 -165 6 -87 -6 -186 -14 -221 -18 -51 -5 -62 -3 -62 9
0 17 47 28 126 28 83 0 174 12 174 23 0 10 -322 3 -437 -9 -49 -5 -53 -4 -53
15 0 19 6 21 73 22 39 1 176 5 302 9 127 4 248 6 270 6 l40 -1 3 -55z m169 18
c-3 -8 -6 -5 -6 6 -1 11 2 17 5 13 3 -3 4 -12 1 -19z m3356 -177 c19 -1 24
-31 5 -31 -7 0 -77 9 -156 21 -128 19 -166 20 -150 4 3 -3 105 -22 227 -42
186 -30 221 -39 219 -52 -4 -19 13 -21 -288 34 -131 24 -239 39 -244 34 -13
-12 -10 -12 234 -59 270 -52 260 -49 260 -66 0 -20 -9 -18 -255 35 -185 40
-245 47 -224 26 2 -2 67 -17 144 -34 169 -38 166 -37 159 -54 -4 -12 -24 -10
-115 13 -86 22 -109 25 -109 14 0 -8 3 -14 6 -14 15 0 290 -73 296 -79 4 -3 4
-11 0 -18 -5 -8 -29 -5 -87 12 -44 12 -132 36 -195 54 -63 18 -123 34 -132 37
-11 3 -18 0 -18 -8 0 -8 85 -37 246 -83 135 -38 251 -73 257 -77 9 -5 9 -10 1
-18 -9 -9 -38 -3 -114 20 -57 18 -109 34 -117 37 -7 3 -13 -1 -13 -10 0 -11
37 -27 130 -57 89 -28 130 -45 130 -55 0 -8 -6 -15 -13 -15 -7 0 -111 34 -231
75 -201 69 -246 81 -220 55 5 -5 106 -43 224 -85 118 -43 227 -82 243 -87 27
-10 38 -38 15 -38 -7 0 -132 45 -277 100 -146 55 -268 100 -273 100 -17 0 -7
-17 17 -28 14 -7 103 -42 198 -78 94 -37 176 -71 182 -75 5 -6 5 -13 -1 -19
-7 -7 -49 6 -125 39 -148 62 -159 66 -159 49 0 -7 90 -51 215 -103 163 -68
215 -94 215 -107 0 -10 -3 -18 -7 -18 -5 0 -134 57 -288 126 -154 69 -295 132
-313 139 l-32 14 24 64 c30 81 61 194 76 277 6 36 12 70 14 76 3 7 70 1 202
-17 110 -15 207 -28 217 -28z m-3428 -303 c23 -68 98 -218 142 -287 l35 -55
-28 -20 c-178 -132 -308 -216 -318 -206 -7 7 -7 13 -1 18 6 4 66 44 133 90 67
46 120 87 117 93 -8 11 9 21 -209 -124 -117 -77 -182 -115 -188 -109 -6 6 -8
14 -5 19 3 4 104 71 226 148 126 80 216 144 211 149 -5 5 -98 -47 -220 -123
-190 -119 -230 -138 -230 -112 0 5 92 64 205 131 182 109 226 140 196 140 -5
0 -66 -34 -137 -75 -71 -41 -132 -74 -137 -72 -23 7 -2 26 82 72 50 27 91 56
91 63 0 6 -2 12 -4 12 -2 0 -66 -33 -142 -74 -128 -69 -154 -79 -154 -56 0 5
88 54 196 110 108 56 192 106 187 111 -4 4 -115 -46 -246 -112 -194 -98 -238
-117 -243 -104 -8 20 -17 13 104 70 56 27 102 54 102 62 0 7 -2 13 -3 13 -2 0
-57 -25 -123 -55 -65 -30 -125 -55 -131 -55 -62 0 95 81 395 207 22 9 31 18
25 24 -6 6 -97 -27 -254 -95 -201 -85 -245 -101 -252 -89 -5 8 -7 16 -5 17 1
1 122 51 268 110 146 59 269 112 274 117 28 26 -20 12 -195 -57 -233 -92 -229
-90 -229 -71 0 15 20 24 188 87 45 17 82 36 82 41 0 16 -17 11 -232 -67 -192
-70 -238 -80 -238 -56 0 5 89 39 198 76 108 37 247 84 307 105 61 22 117 40
126 40 10 1 22 -18 34 -51z m156 -105 c7 -18 20 -34 29 -37 12 -3 11 -4 -2 -5
-12 -1 -26 16 -43 51 -14 28 -25 54 -25 57 0 10 27 -33 41 -66z m2974 -97 c82
-37 141 -71 143 -80 2 -9 1 -16 -2 -16 -3 0 -67 29 -142 65 -75 36 -141 65
-145 65 -32 0 16 -29 189 -115 108 -54 199 -99 201 -101 2 -2 1 -10 -3 -19 -6
-17 -32 -4 -393 187 -60 31 -93 44 -93 35 0 -10 254 -155 412 -234 17 -9 25
-19 21 -28 -3 -8 -7 -15 -9 -15 -4 0 -45 23 -258 142 -89 51 -162 86 -167 81
-5 -5 50 -43 126 -87 74 -43 135 -82 135 -86 0 -22 -21 -14 -105 36 -50 30
-93 54 -97 54 -33 0 41 -53 229 -166 23 -14 30 -23 24 -33 -7 -11 -50 12 -190
103 -173 111 -201 126 -201 109 0 -6 295 -206 434 -295 8 -5 7 -11 -1 -19 -10
-10 -33 1 -110 54 -54 37 -101 67 -105 67 -29 0 8 -36 107 -104 91 -63 112
-82 103 -93 -9 -11 -16 -9 -42 10 -35 26 -257 187 -317 230 -21 16 -44 25 -50
22 -5 -4 86 -79 203 -167 117 -87 213 -164 213 -170 0 -6 -4 -13 -10 -15 -5
-1 -115 79 -243 178 -131 101 -238 177 -243 172 -4 -4 69 -69 166 -147 96 -76
175 -142 175 -147 0 -27 -31 -9 -131 73 -104 87 -124 100 -124 80 0 -7 247
-223 328 -286 25 -20 29 -28 20 -37 -9 -9 -17 -9 -32 2 -43 30 -490 424 -490
433 -1 5 14 27 33 50 48 59 118 169 160 253 l36 72 52 -24 c29 -13 116 -53
193 -89z m-2931 18 c3 -8 2 -12 -4 -9 -6 3 -10 10 -10 16 0 14 7 11 14 -7z
m45 -78 c0 -6 -5 -1 -11 12 -6 12 -15 22 -20 22 -4 0 -8 6 -8 13 1 6 10 1 20
-12 11 -13 20 -28 19 -35z m62 -83 c13 -16 12 -17 -3 -4 -10 7 -18 15 -18 17
0 8 8 3 21 -13z m-61 -84 c25 -34 91 -106 148 -160 66 -64 100 -104 95 -112
-20 -34 -237 -307 -244 -307 -24 0 -8 28 77 136 113 140 107 131 95 139 -5 3
-73 -72 -151 -167 -78 -95 -147 -173 -153 -173 -29 0 -4 35 148 213 186 219
179 209 166 216 -8 5 -79 -73 -287 -316 -46 -54 -64 -64 -71 -42 -2 5 67 87
152 181 85 95 155 177 155 183 0 17 -18 11 -37 -13 -10 -13 -58 -66 -105 -117
-71 -75 -89 -90 -94 -76 -5 13 13 38 71 96 46 46 73 80 66 84 -6 4 -57 -41
-119 -105 -89 -92 -112 -111 -128 -105 -16 7 5 31 145 165 110 106 160 160
152 165 -7 5 -14 6 -16 5 -2 -2 -57 -56 -122 -119 -240 -235 -262 -254 -269
-236 -5 12 17 38 80 97 47 45 86 85 86 90 0 22 -28 3 -119 -81 -54 -49 -103
-90 -109 -90 -40 0 -3 38 266 269 66 57 85 81 64 81 -4 0 -98 -76 -208 -170
-109 -93 -202 -170 -205 -170 -4 0 -9 6 -12 14 -3 8 77 81 224 201 126 104
229 192 229 197 0 17 -23 6 -68 -32 -26 -21 -103 -84 -172 -138 -98 -79 -127
-97 -133 -85 -5 8 -7 16 -5 17 45 32 219 169 223 176 3 5 2 11 -3 14 -5 3 -94
-60 -199 -139 -152 -115 -194 -141 -202 -131 -13 16 -23 7 304 246 121 88 225
160 230 159 6 0 30 -27 55 -60z m201 -76 c13 -16 12 -17 -3 -4 -10 7 -18 15
-18 17 0 8 8 3 21 -13z m2353 -125 c106 -95 153 -144 145 -149 -12 -7 -103 63
-139 106 -27 33 -111 97 -118 91 -4 -4 67 -79 158 -166 128 -123 162 -161 153
-170 -9 -10 -53 28 -198 171 -102 101 -190 186 -196 187 -26 10 6 -28 166
-193 121 -124 171 -183 164 -190 -8 -7 -63 44 -178 163 -91 95 -170 170 -174
166 -7 -7 18 -38 135 -162 37 -40 68 -77 68 -83 0 -25 -32 -2 -95 70 -42 48
-74 76 -79 70 -6 -5 -3 -15 6 -26 132 -150 188 -217 188 -224 0 -26 -24 -12
-67 38 -26 32 -56 67 -66 78 -10 11 -53 62 -95 113 -46 56 -80 88 -85 83 -6
-6 22 -46 69 -104 277 -332 267 -318 245 -331 -5 -3 -44 37 -86 90 -50 63 -81
92 -87 86 -6 -6 20 -47 76 -118 47 -60 86 -112 86 -115 0 -4 -6 -9 -13 -12 -9
-3 -66 65 -159 189 -81 108 -149 190 -153 185 -8 -14 -16 -1 158 -240 114
-156 146 -205 136 -212 -17 -11 -7 -24 -203 255 -88 124 -164 222 -168 218 -5
-5 48 -91 117 -191 112 -164 132 -201 106 -201 -5 0 -44 54 -87 120 -44 66
-85 120 -91 120 -7 0 -13 -2 -13 -5 0 -3 58 -96 130 -207 107 -168 127 -204
114 -211 -8 -5 -17 -7 -18 -5 -1 1 -69 111 -150 243 -82 132 -161 260 -177
284 l-28 45 37 25 c62 41 174 136 237 200 33 34 62 61 66 61 4 0 77 -64 163
-142z m-2189 -134 c47 -30 134 -79 194 -107 l108 -52 -71 -187 c-41 -112 -75
-188 -83 -188 -20 0 -17 9 42 161 50 129 60 169 36 143 -8 -8 -53 -116 -151
-356 -23 -57 -36 -70 -46 -45 -2 7 41 117 96 245 55 127 100 236 100 242 0 36
-28 -16 -115 -212 -54 -123 -101 -226 -104 -230 -3 -4 -12 -4 -19 1 -10 6 12
61 88 223 55 119 100 218 100 222 0 3 -5 6 -10 6 -6 0 -41 -63 -77 -140 -37
-77 -72 -140 -80 -140 -20 0 -16 14 32 110 25 49 45 94 45 100 0 31 -24 -4
-89 -130 -40 -77 -76 -140 -81 -140 -24 0 -11 32 84 206 69 126 100 192 94
199 -7 7 -12 6 -14 -1 -3 -5 -58 -106 -124 -224 -66 -117 -120 -217 -120 -222
0 -11 -27 -10 -34 1 -3 5 19 51 50 102 67 111 70 119 52 119 -7 0 -44 -52 -82
-115 -38 -63 -75 -115 -82 -115 -8 0 -14 4 -14 9 0 10 60 110 151 255 88 139
102 166 87 166 -7 0 -76 -99 -153 -220 -88 -138 -145 -219 -154 -218 -8 2 -15
6 -15 10 -1 4 71 116 159 249 88 133 162 246 163 250 7 18 -25 8 -34 -9 -25
-51 -231 -342 -241 -342 -24 0 -13 24 68 138 48 67 77 118 72 123 -5 5 -29
-18 -58 -58 -59 -82 -144 -199 -197 -271 -32 -43 -42 -51 -53 -42 -12 10 19
56 167 253 168 225 217 287 224 287 2 0 42 -25 89 -56z m1774 -198 c58 -96
104 -178 103 -182 -6 -27 -33 5 -98 116 -40 69 -75 129 -77 134 -2 5 -8 6 -14
3 -7 -5 28 -76 98 -201 60 -106 109 -199 109 -205 0 -6 -6 -11 -14 -11 -8 0
-67 100 -137 230 -68 127 -130 230 -137 230 -9 0 6 -36 41 -102 146 -276 180
-349 169 -360 -7 -7 -13 -10 -16 -7 -2 2 -52 100 -110 217 -58 116 -111 212
-116 212 -6 0 -10 -2 -10 -4 0 -2 29 -64 65 -138 68 -141 73 -158 52 -158 -7
0 -31 42 -53 93 -24 53 -48 93 -57 95 -12 2 1 -36 50 -143 53 -118 64 -148 52
-155 -7 -5 -14 -8 -15 -7 -1 2 -123 286 -161 376 -9 20 -18 30 -24 24 -5 -5
31 -104 92 -252 80 -191 99 -245 88 -252 -17 -10 -20 -6 -66 118 -21 56 -44
103 -50 103 -19 0 -17 -7 36 -147 40 -103 46 -129 34 -131 -8 -2 -16 -2 -19 0
-2 3 -38 101 -80 219 -42 118 -80 218 -85 223 -26 28 -12 -24 66 -251 47 -137
85 -252 85 -255 0 -3 -7 -8 -15 -12 -11 -4 -34 55 -107 279 -63 195 -96 285
-106 285 -9 0 -12 -6 -7 -17 15 -39 125 -398 125 -410 0 -7 -6 -13 -14 -13 -9
0 -26 46 -51 133 -36 128 -48 157 -61 145 -3 -4 22 -108 57 -233 52 -188 61
-228 49 -235 -8 -5 -16 -8 -17 -6 -3 3 -161 610 -166 635 -1 8 32 25 96 47 54
19 144 59 200 88 56 30 104 54 107 55 3 0 52 -77 109 -173z m-1369 9 c25 -8
64 -19 87 -25 40 -10 41 -12 33 -38 -5 -15 -30 -130 -56 -257 -26 -126 -50
-233 -53 -237 -3 -4 -11 -4 -18 0 -8 5 -4 38 14 120 14 62 23 115 20 118 -14
15 -26 -14 -52 -132 -26 -113 -43 -149 -61 -131 -3 2 22 110 55 238 34 128 59
235 56 237 -13 13 -27 -28 -91 -260 -58 -215 -70 -248 -87 -248 -11 0 -17 5
-14 13 2 6 39 130 81 274 42 145 79 269 82 278 4 9 1 15 -8 15 -9 0 -22 -28
-37 -77 -65 -224 -106 -343 -118 -343 -20 0 -17 15 31 157 33 100 41 133 31
137 -9 3 -35 -61 -90 -225 -42 -126 -81 -229 -86 -229 -21 0 -20 33 4 97 14
38 60 165 103 283 42 118 81 226 85 239 7 17 14 21 27 16 9 -4 37 -13 62 -20z
m881 -220 c49 -205 49 -200 30 -200 -14 0 -23 32 -66 228 -9 42 -21 77 -26 77
-15 0 -11 -25 35 -240 25 -112 42 -208 40 -212 -9 -15 -34 -8 -34 9 0 18 -88
477 -96 502 -3 9 -8 11 -14 5 -5 -5 10 -109 36 -253 25 -134 43 -246 40 -249
-12 -11 -36 9 -36 30 0 34 -68 429 -74 436 -16 16 -15 -19 5 -157 12 -83 20
-154 16 -157 -15 -16 -26 14 -37 106 -11 88 -22 122 -36 108 -2 -3 5 -74 16
-159 11 -85 20 -155 20 -156 0 -2 -7 -3 -15 -3 -19 0 -21 10 -44 238 -11 107
-22 196 -25 200 -17 16 -16 -27 4 -245 28 -308 28 -287 9 -291 -14 -3 -18 14
-25 119 -6 85 -13 124 -22 127 -10 3 -11 -25 -6 -142 6 -126 5 -146 -8 -146
-17 0 -28 92 -28 234 0 122 -12 246 -23 246 -6 0 -7 -92 -3 -268 7 -241 6
-269 -8 -269 -13 0 -16 13 -18 66 0 36 -2 71 -3 76 -2 6 -3 110 -4 233 -1 172
-4 222 -14 222 -9 0 -12 -50 -12 -222 0 -192 -2 -223 -15 -223 -13 0 -14 21
-11 148 3 130 2 147 -13 147 -13 0 -16 -13 -16 -82 0 -46 -3 -154 -7 -240 -6
-145 -8 -158 -25 -158 -17 0 -18 7 -13 78 8 106 25 486 25 543 l0 46 138 6
c75 4 175 15 222 24 56 12 87 15 91 8 4 -5 26 -91 50 -190z m-608 164 c45 -6
83 -12 85 -14 2 -1 -3 -92 -10 -201 -10 -151 -16 -198 -27 -202 -12 -4 -13 16
-7 124 4 71 9 144 13 162 4 24 2 32 -9 32 -12 0 -18 -45 -33 -225 -17 -206
-20 -225 -38 -225 -16 0 -17 6 -13 43 6 44 45 411 49 461 1 16 -3 31 -8 33 -9
3 -31 -157 -62 -440 -6 -57 -17 -77 -33 -61 -7 7 5 112 52 458 2 11 -2 21 -8
23 -7 2 -19 -50 -32 -144 -12 -81 -22 -151 -22 -155 0 -5 -7 -8 -15 -8 -19 0
-19 15 1 123 15 83 13 118 -5 89 -4 -8 -18 -73 -31 -147 -24 -141 -33 -167
-49 -150 -6 6 4 79 30 205 21 107 39 206 39 219 0 20 4 22 26 17 14 -4 62 -11
107 -17z"/>
<path d="M2790 3894 c-13 -15 -6 -17 24 -5 17 6 17 8 3 14 -8 3 -21 -1 -27 -9z"/>
<path d="M2570 3638 c0 -4 16 -8 35 -8 19 0 35 2 35 4 0 2 -16 6 -35 8 -19 2
-35 0 -35 -4z"/>
<path d="M2498 3613 c7 -3 16 -2 19 1 4 3 -2 6 -13 5 -11 0 -14 -3 -6 -6z"/>
<path d="M2305 3550 c-13 -6 -15 -9 -5 -9 8 0 22 4 30 9 18 12 2 12 -25 0z"/>
<path d="M2285 3410 c-3 -5 -15 -10 -26 -10 -10 0 -19 -4 -19 -10 0 -5 18 -10
40 -10 33 0 40 3 40 20 0 21 -24 28 -35 10z"/>
</g>
</svg>
