<?xml version="1.0" standalone="no"?>
<!DOCTYPE svg PUBLIC "-//W3C//DTD SVG 20010904//EN"
 "http://www.w3.org/TR/2001/REC-SVG-20010904/DTD/svg10.dtd">
<svg version="1.0" xmlns="http://www.w3.org/2000/svg"
 width="512.000000pt" height="512.000000pt" viewBox="0 0 512.000000 512.000000"
 preserveAspectRatio="xMidYMid meet">
<metadata>
Created by potrace 1.14, written by Peter Selinger 2001-2017
</metadata>
<g transform="translate(0.000000,512.000000) scale(0.100000,-0.100000)"
fill="#000000" stroke="none">
<path d="M2531 4983 c-1 -7 -25 -11 -68 -12 -99 -1 -170 -7 -238 -20 -33 -6
-78 -13 -100 -16 -68 -8 -273 -59 -310 -77 -12 -5 -27 -10 -35 -12 -19 -4 -71
-24 -90 -35 -8 -4 -25 -6 -38 -4 -13 1 -21 -1 -17 -6 3 -5 -5 -13 -17 -17 -13
-4 -63 -26 -112 -50 -48 -24 -93 -41 -100 -37 -6 3 -8 3 -4 -2 4 -4 -12 -20
-35 -36 -44 -30 -63 -37 -51 -17 4 7 3 8 -5 4 -6 -4 -9 -12 -6 -17 4 -5 -2
-12 -12 -16 -10 -3 -31 -15 -46 -26 -24 -16 -30 -17 -45 -5 -15 11 -15 11 -5
-3 10 -13 3 -22 -48 -60 -33 -24 -68 -51 -78 -59 -61 -49 -76 -60 -84 -60 -4
0 -5 -4 -2 -10 3 -5 2 -10 -3 -10 -5 0 -45 -35 -90 -78 -45 -43 -83 -78 -84
-78 -2 1 -2 -1 -1 -3 5 -7 -71 -86 -80 -83 -5 1 -6 -2 -3 -7 4 -5 0 -13 -7
-18 -7 -4 -28 -29 -47 -55 -18 -26 -36 -45 -40 -43 -4 3 -7 -3 -6 -13 0 -9 -5
-16 -12 -14 -6 1 -11 -1 -10 -5 5 -15 -44 -83 -54 -77 -7 4 -8 2 -4 -4 7 -12
-27 -75 -37 -67 -4 3 -5 2 -2 -1 8 -12 -35 -85 -47 -78 -6 4 -8 3 -5 -3 3 -5
-12 -45 -34 -88 -21 -43 -39 -85 -39 -92 0 -7 -4 -13 -8 -13 -5 0 -15 -18 -22
-39 -9 -29 -17 -38 -29 -34 -12 4 -13 2 -3 -4 10 -7 6 -28 -19 -94 -17 -46
-39 -112 -48 -147 -10 -34 -20 -60 -23 -57 -3 3 -3 -5 -1 -18 3 -14 0 -28 -6
-31 -5 -4 -7 -14 -4 -23 4 -9 2 -14 -3 -11 -5 4 -10 -6 -10 -20 -3 -55 -17
-142 -23 -142 -3 0 -7 -21 -9 -48 -1 -26 -4 -63 -6 -82 -2 -19 -5 -48 -5 -63
-1 -19 -5 -26 -13 -21 -7 5 -8 3 -2 -7 12 -20 12 -259 -1 -259 -6 0 -6 -3 1
-8 6 -4 11 -20 11 -37 0 -33 11 -146 17 -185 3 -14 8 -47 11 -75 12 -87 27
-153 39 -174 4 -6 1 -11 -6 -11 -10 0 -10 -2 1 -9 7 -5 14 -25 15 -44 0 -19 4
-33 9 -30 4 2 7 -5 7 -15 0 -11 7 -36 15 -56 8 -20 13 -36 10 -36 -3 0 1 -13
9 -29 14 -27 44 -104 49 -126 2 -5 6 -16 10 -22 5 -7 5 -17 2 -23 -3 -5 -2
-10 3 -10 9 0 125 -228 125 -247 0 -7 4 -10 8 -7 4 2 21 -19 38 -48 16 -29 41
-68 55 -87 14 -19 23 -39 19 -45 -3 -6 -3 -8 2 -4 10 10 36 -18 38 -41 0 -11
4 -18 7 -16 4 2 14 -5 23 -16 9 -10 14 -19 10 -19 -3 0 4 -8 15 -19 12 -10 22
-21 22 -24 0 -14 298 -305 343 -336 27 -18 45 -37 41 -43 -4 -6 -3 -8 3 -5 6
4 30 -8 54 -26 55 -41 138 -97 145 -97 3 0 25 -14 49 -30 24 -17 48 -30 54
-30 6 0 11 -4 11 -10 0 -5 3 -9 8 -8 4 1 54 -21 112 -49 58 -28 123 -56 145
-63 22 -7 45 -16 50 -20 6 -4 36 -15 68 -24 31 -10 57 -21 57 -24 0 -4 10 -8
23 -8 25 -2 58 -9 142 -31 81 -21 85 -21 123 -22 18 -1 31 -5 28 -9 -3 -5 9
-6 26 -4 24 4 29 2 23 -9 -6 -11 -5 -11 4 -3 8 7 25 9 46 4 19 -4 36 -5 39 -2
4 3 6 1 6 -4 0 -5 30 -8 67 -8 38 1 73 -2 80 -8 7 -5 13 -5 17 0 3 6 20 7 40
2 19 -4 37 -6 39 -3 2 2 57 6 121 8 65 3 122 8 128 11 7 5 8 2 3 -7 -8 -12 -6
-12 8 0 9 7 24 11 32 7 8 -3 15 -2 15 3 0 4 6 8 13 8 6 1 37 4 67 9 30 4 67 8
83 8 15 1 27 4 27 7 0 13 55 17 69 6 11 -9 13 -9 8 0 -9 15 0 21 44 28 19 3
46 10 61 16 15 6 35 9 43 5 9 -3 14 -2 11 3 -3 5 2 11 12 14 121 38 433 178
440 198 2 5 9 9 15 9 6 0 18 6 26 14 9 8 23 16 31 18 8 2 17 5 20 8 22 23 82
60 92 58 7 -2 12 2 11 8 -1 7 17 25 40 40 56 39 111 85 209 174 50 46 63 55
70 53 5 -2 7 1 5 5 -4 14 105 132 116 125 6 -3 7 -1 4 5 -4 5 9 30 29 54 19
23 42 51 49 60 8 10 26 36 40 57 13 22 31 43 39 48 14 8 16 12 16 32 0 5 6 16
13 23 33 34 166 289 205 393 6 17 17 44 23 60 14 34 16 41 18 56 0 5 6 7 13 3
7 -4 8 -3 4 4 -10 16 15 93 27 85 6 -3 7 -1 4 4 -9 14 13 123 25 123 5 0 7 4
4 9 -3 4 0 33 6 64 9 42 15 54 27 50 13 -4 13 -2 -1 6 -13 9 -15 18 -8 42 5
16 11 53 15 82 7 65 12 94 20 107 3 6 3 10 -2 10 -12 0 -2 94 11 102 8 6 8 8
-1 8 -13 0 -11 89 2 110 3 6 3 10 -2 10 -4 0 -8 47 -8 105 0 58 -2 105 -5 105
-5 0 -11 52 -14 113 0 15 -4 27 -7 27 -4 0 -7 19 -7 43 0 23 -5 55 -11 72 -7
16 -13 48 -14 71 -1 23 -5 40 -8 39 -3 -2 -15 33 -27 78 -12 45 -24 89 -26 97
-2 8 -9 28 -15 43 -6 16 -8 34 -4 40 3 7 2 9 -2 4 -5 -4 -23 28 -40 70 -44
108 -92 206 -137 281 -21 34 -39 68 -41 75 -1 6 -9 17 -17 24 -8 7 -11 13 -7
13 5 0 2 6 -5 13 -21 22 -53 67 -53 75 0 4 -14 22 -32 41 -18 19 -31 37 -28
39 2 2 -6 14 -18 27 -45 46 -77 85 -77 95 0 5 -7 10 -15 10 -8 0 -15 4 -15 8
0 12 -132 144 -210 212 -35 30 -75 66 -90 80 -14 13 -27 23 -28 21 -2 -2 -15
6 -28 18 -13 12 -27 21 -30 21 -13 0 -53 38 -46 45 4 3 2 5 -3 4 -12 -4 -70
26 -112 58 -18 13 -33 21 -33 17 0 -4 -8 2 -17 12 -10 10 -24 20 -31 22 -7 1
-47 19 -88 39 -54 25 -72 38 -62 45 8 5 4 6 -13 2 -15 -3 -30 -1 -33 5 -4 6
-16 11 -26 11 -10 0 -25 6 -32 13 -7 6 -17 12 -23 12 -8 0 -99 31 -185 63 -8
3 -22 6 -30 7 -8 0 -30 5 -47 9 -18 4 -35 7 -38 7 -2 0 -23 6 -45 14 -22 8
-40 12 -40 10 0 -2 -15 1 -32 6 -18 5 -60 12 -93 15 -33 4 -70 10 -82 15 -13
5 -23 6 -23 3 0 -4 -6 -1 -14 5 -8 7 -17 8 -20 3 -3 -5 -18 -8 -33 -6 -16 3
-54 4 -85 5 -32 0 -60 4 -63 10 -4 6 -13 5 -25 -1 -13 -7 -20 -6 -23 3 -4 8
-6 8 -6 0z"/>
<path d="M4193 4355 c0 -8 4 -12 9 -9 5 3 6 10 3 15 -9 13 -12 11 -12 -6z"/>
<path d="M4690 3686 c0 -2 7 -7 16 -10 8 -3 12 -2 9 4 -6 10 -25 14 -25 6z"/>
<path d="M4955 2480 c3 -5 8 -10 11 -10 2 0 4 5 4 10 0 6 -5 10 -11 10 -5 0
-7 -4 -4 -10z"/>
<path d="M2390 116 c0 -2 8 -10 18 -17 15 -13 16 -12 3 4 -13 16 -21 21 -21
13z"/>
</g>
</svg>
